<svg height="480pt" viewBox="0 0 480 480.05035" width="480pt" xmlns="http://www.w3.org/2000/svg"><path d="m312.023438 296.050781c4.421874 0 8-3.582031 8-8v-112c.054687-2.449219-1.011719-4.785156-2.898438-6.347656-1.890625-1.558594-4.386719-2.167969-6.78125-1.652344l-111.117188 24h-47.203124c-13.253907 0-24 10.746094-24 24v32c0 13.253907 10.746093 24 24 24h1.761718l11.519532 46.160157c2.613281 10.503906 12.058593 17.867187 22.878906 17.839843 7.234375-.007812 14.0625-3.34375 18.515625-9.046875 4.453125-5.699218 6.03125-13.132812 4.285156-20.152344l-8.558594-34.082031 107.917969 23.28125zm-168-48v-32c0-4.417969 3.582031-8 8-8h40v48h-40c-4.417969 0-8-3.582031-8-8zm50.082031 69.121094c-1.417969 1.828125-3.605469 2.890625-5.921875 2.878906-3.46875.03125-6.507813-2.316406-7.359375-5.679687l-10.558594-42.320313h15.519531l9.679688 38.640625c.574218 2.253906.070312 4.644532-1.359375 6.480469zm109.917969-39.042969-96-20.558594v-51.039062l96-20.5625zm0 0"/><path d="m336.023438 232.050781c0 4.417969 3.582031 8 8 8h48c4.421874 0 8-3.582031 8-8s-3.578126-8-8-8h-48c-4.417969 0-8 3.582031-8 8zm0 0"/><path d="m372.425781 160.929688-32 16c-3.921875 1.996093-5.496093 6.789062-3.519531 10.71875 1.355469 2.691406 4.105469 4.394531 7.117188 4.402343 1.257812.015625 2.496093-.289062 3.601562-.878906l32-16c2.769531-1.15625 4.660156-3.757813 4.898438-6.746094.242187-2.992187-1.210938-5.863281-3.761719-7.441406-2.546875-1.578125-5.765625-1.601563-8.335938-.054687zm0 0"/><path d="m340.425781 287.171875 32 16c1.105469.589844 2.34375.894531 3.597657.878906 3.015624-.007812 5.765624-1.710937 7.121093-4.402343 1.976563-3.929688.402344-8.722657-3.519531-10.71875l-32-16c-2.570312-1.546876-5.789062-1.523438-8.335938.054687-2.550781 1.578125-4.003906 4.449219-3.761718 7.441406.238281 2.988281 2.128906 5.589844 4.898437 6.746094zm0 0"/><path d="m440.023438 112.050781h-400c-22.089844 0-40.0000005 17.90625-40.0000005 40v40c0 4.417969 3.5820315 8 8.0000005 8 4.421874 0 8-3.582031 8-8v-40c0-13.253906 10.746093-24 24-24h400c13.257812 0 24 10.746094 24 24v200h-48c-4.417969 0-8 3.582031-8 8s3.582031 8 8 8h46.640624c-3.390624 9.59375-12.464843 16.003907-22.640624 16h-400c-10.171876.003907-19.246094-6.40625-22.636719-16h334.636719c4.421874 0 8-3.582031 8-8s-3.578126-8-8-8h-336v-112c0-4.417969-3.578126-8-8-8-4.417969 0-8.0000005 3.582031-8.0000005 8v120c0 22.089844 17.9101565 40 40.0000005 40h56v32h-16c-22.089844 0-40 17.90625-40 40 0 4.417969 3.582031 8 8 8h384c4.421874 0 8-3.582031 8-8s-3.578126-8-8-8h-374.636719c3.390625-9.59375 12.464843-16.003906 22.636719-16h320c4.421874 0 8-3.582031 8-8s-3.578126-8-8-8h-16v-32h56c22.09375 0 40-17.910156 40-40v-208c0-22.09375-17.90625-40-40-40zm-104 288v32h-192v-32zm-224 32v-32h16v32zm256 0h-16v-32h16zm0 0"/><path d="m232.023438 96.050781c4.421874 0 8-3.582031 8-8v-16c0-4.417969 3.582031-8 8-8h160c4.421874 0 8 3.582031 8 8v16c0 4.417969 3.582031 8 8 8 4.421874 0 8-3.582031 8-8v-16c0-13.253906-10.742188-24-24-24h-160c-13.253907 0-24 10.746094-24 24v16c0 4.417969 3.582031 8 8 8zm0 0"/><path d="m264.023438 80.050781c-4.417969 0-8 3.582031-8 8s3.582031 8 8 8h64c4.421874 0 8-3.582031 8-8s-3.578126-8-8-8zm0 0"/><path d="m368.023438 88.050781c0 4.417969-3.578126 8-8 8-4.417969 0-8-3.582031-8-8s3.582031-8 8-8c4.421874 0 8 3.582031 8 8zm0 0"/><path d="m400.023438 88.050781c0 4.417969-3.578126 8-8 8-4.417969 0-8-3.582031-8-8s3.582031-8 8-8c4.421874 0 8 3.582031 8 8zm0 0"/><path d="m104.585938 55.089844c2.125.011718 4.167968-.820313 5.679687-2.320313 1.515625-1.5 2.367187-3.546875 2.367187-5.679687 0-2.132813-.851562-4.175782-2.367187-5.679688-12.671875-12.089844-32.609375-12.089844-45.28125 0-3.136719 3.136719-3.136719 8.222656 0 11.359375s8.222656 3.136719 11.359375 0c6.242188-6.203125 16.320312-6.203125 22.5625 0 1.507812 1.5 3.550781 2.332031 5.679688 2.320313zm0 0"/><path d="m53.707031 30.128906c18.738281-18.714844 49.097657-18.714844 67.839844 0 1.5 1.515625 3.546875 2.367188 5.679687 2.367188 2.132813 0 4.175782-.851563 5.679688-2.367188 1.511719-1.5 2.367188-3.546875 2.367188-5.679687 0-2.132813-.855469-4.175781-2.367188-5.679688-12.003906-12.015625-28.292969-18.769531-45.28125-18.769531-16.984375 0-33.277344 6.753906-45.28125 18.769531-3.136719 3.136719-3.136719 8.222657 0 11.359375 3.136719 3.136719 8.222656 3.136719 11.363281 0zm0 0"/><path d="m95.625 72.050781c0 4.417969-3.582031 8-8 8s-8-3.582031-8-8 3.582031-8 8-8 8 3.582031 8 8zm0 0"/><path d="m80.023438 176.050781c4.421874 0 8-3.582031 8-8s-3.578126-8-8-8h-32c-4.417969 0-8 3.582031-8 8v32c0 4.417969 3.582031 8 8 8h32c4.421874 0 8-3.582031 8-8s-3.578126-8-8-8h-24v-16zm0 0"/><path d="m40.023438 320.050781c0 4.417969 3.582031 8 8 8 4.421874 0 8-3.582031 8-8v-72h16v72c0 4.417969 3.582031 8 8 8 4.421874 0 8-3.582031 8-8v-80c0-4.417969-3.578126-8-8-8h-32c-4.417969 0-8 3.582031-8 8zm0 0"/></svg>