<svg height="496pt" viewBox="0 0 496 496" width="496pt" xmlns="http://www.w3.org/2000/svg"><path d="m488 128h-100.6875l65.976562-65.976562c3.367188 1.199218 6.933594 1.976562 10.710938 1.976562 17.648438 0 32-14.351562 32-32s-14.351562-32-32-32-32 14.351562-32 32c0 7.976562 3.039062 15.191406 7.886719 20.800781l-75.199219 75.199219h-34.351562l-77.921876-49.585938c2.21875-4.351562 3.585938-9.207031 3.585938-14.414062 0-17.648438-14.351562-32-32-32-11.625 0-21.71875 6.289062-27.320312 15.585938l-132.757813-14.753907c0-.28125.078125-.542969.078125-.832031 0-17.648438-14.351562-32-32-32s-32 14.351562-32 32 14.351562 32 32 32c.992188 0 1.9375-.207031 2.902344-.296875l48.152344 96.296875h-75.054688c-4.425781 0-8 3.585938-8 8v208c0 4.425781 3.574219 8 8 8h136v48h-16c-30.871094 0-56 25.128906-56 56 0 4.425781 3.574219 8 8 8h192c4.425781 0 8-3.574219 8-8 0-30.871094-25.128906-56-56-56h-16v-48h136c4.425781 0 8-3.574219 8-8v-56h136c4.425781 0 8-3.574219 8-8v-176c0-4.414062-3.574219-8-8-8zm-24-112c8.824219 0 16 7.175781 16 16s-7.175781 16-16 16-16-7.175781-16-16 7.175781-16 16-16zm-240 288v-151.046875l94.175781 77.558594-73.488281 73.488281zm-16-112h-38.472656l6.738281-16h31.734375zm-55.839844 0h-35.214844l-8-16h49.949219zm-6.734375 16-6.851562 16.265625c-.863281-.074219-1.695313-.265625-2.574219-.265625-.992188 0-1.9375.207031-2.902344.296875l-8.152344-16.296875zm-9.425781 32c8.824219 0 16 7.175781 16 16s-7.175781 16-16 16-16-7.175781-16-16 7.175781-16 16-16zm-18.113281-10.335938c-8.375 5.777344-13.886719 15.414063-13.886719 26.335938 0 17.648438 14.351562 32 32 32s32-14.351562 32-32c0-11.070312-5.65625-20.839844-14.230469-26.585938l9.015625-21.414062h45.214844v104c0 4.425781 3.574219 8 8 8h88v16h-256v-128h59.054688zm149.425781 74.335938 63.273438-63.273438 16.324218 13.449219c1.480469 1.214844 3.28125 1.824219 5.089844 1.824219s3.609375-.609375 5.089844-1.824219l16.324218-13.449219 63.273438 63.273438zm84.6875-66.359375-113.703125-93.640625h227.398437zm-136-109.640625c-4.425781 0-8 3.585938-8 8v24h-25l28.113281-66.761719c3.949219 1.753907 8.292969 2.761719 12.886719 2.761719 6.566406 0 12.664062-2 17.753906-5.398438l58.773438 37.398438zm8-80c8.824219 0 16 7.175781 16 16s-7.175781 16-16 16-16-7.175781-16-16 7.175781-16 16-16zm-208-16c0-8.824219 7.175781-16 16-16s16 7.175781 16 16-7.175781 16-16 16-16-7.175781-16-16zm34.113281 26.335938c3.75-2.59375 6.847657-6 9.207031-9.921876l132.757813 14.753907c0 .28125-.078125.542969-.078125.832031 0 7.007812 2.335938 13.449219 6.167969 18.726562l-32.535157 77.273438h-64.6875zm213.078125 421.664062h-174.382812c3.71875-18.230469 19.871094-32 39.191406-32h96c19.320312 0 35.480469 13.769531 39.191406 32zm-71.191406-48h-32v-48h32zm144-64h-320v-192h75.054688l8 16h-59.054688c-4.425781 0-8 3.585938-8 8v144c0 4.425781 3.574219 8 8 8h272c4.425781 0 8-3.574219 8-8v-24h16zm123.3125-64-73.488281-73.488281 94.175781-77.558594v151.046875zm0 0"/></svg>