<?xml version="1.0" encoding="iso-8859-1"?>
<!-- Generator: Adobe Illustrator 19.0.0, SVG Export Plug-In . SVG Version: 6.00 Build 0)  -->
<svg version="1.1" id="Capa_1" xmlns="http://www.w3.org/2000/svg" xmlns:xlink="http://www.w3.org/1999/xlink" x="0px" y="0px"
	 viewBox="0 0 496 496" style="enable-background:new 0 0 496 496;" xml:space="preserve">
<g>
	<g>
		<path d="M456,88h-60.904L365.768,0H130.232l-29.336,88H40c-22.056,0-40,17.944-40,40v280c0,22.056,17.944,40,40,40h96v32h-32v16
			h288v-16h-32v-32h96c22.056,0,40-17.944,40-40V128C496,105.944,478.056,88,456,88z M354.232,16l29.728,89.168
			C383.36,113.448,376.432,120,368,120c-8.824,0-16-7.176-16-16l-14.568-88H354.232z M321.224,16l14.736,88.416
			C335.736,113.04,328.68,120,320,120c-8.824,0-16-7.176-16-16h-0.032v-0.664L296.688,16H321.224z M256,16h24.648L288,104
			c0,8.824-7.176,16-16,16c-8.824,0-16-7.176-16-16V16z M215.36,16H240v88c0,8.824-7.176,16-16,16
			c-8.776,0-15.912-7.112-15.984-15.872L215.36,16z M224,136c9.544,0,18.136-4.2,24-10.856C253.864,131.8,262.456,136,272,136
			s18.136-4.2,24-10.856C301.864,131.8,310.456,136,320,136s18.136-4.2,24-10.856C349.864,131.8,358.456,136,368,136v112h-34.712
			l-14.4-96H168.76l-9.6,96H128V136c9.544,0,18.136-4.2,24-10.856C157.864,131.8,166.456,136,176,136s18.136-4.2,24-10.856
			C205.864,131.8,214.456,136,224,136z M326.712,312h-22.296l5.568-111.488L326.712,312z M295.584,168l-7.2,144H168.84l14.4-144
			H295.584z M174.776,16h24.536L192,104c0,8.824-7.176,16-16,16c-8.68,0-15.736-6.96-15.96-15.584L174.776,16z M141.768,16h16.792
			l-14.448,86.688L144.096,104H144c0,8.824-7.176,16-16,16c-8.432,0-15.36-6.552-15.96-14.832L141.768,16z M344,480H152v-32h192V480
			z M480,408c0,13.232-10.768,24-24,24H40c-13.232,0-24-10.768-24-24v-24h464V408z M480,368H16V128c0-13.232,10.768-24,24-24h56
			c0,11.792,6.48,22,16,27.552V264h45.56l-6.4,64h194.136l-9.6-64H384V131.552c9.52-5.552,16-15.76,16-27.552h56
			c13.232,0,24,10.768,24,24V368z"/>
	</g>
</g>
<g>
	<g>
		<rect x="184" y="400" width="128" height="16"/>
	</g>
</g>
<g>
	<g>
		<path d="M264,192v8c0,13.232-10.768,24-24,24s-24-10.768-24-24v-8h-16v8c0,22.056,17.944,40,40,40c22.056,0,40-17.944,40-40v-8
			H264z"/>
	</g>
</g>
<g>
</g>
<g>
</g>
<g>
</g>
<g>
</g>
<g>
</g>
<g>
</g>
<g>
</g>
<g>
</g>
<g>
</g>
<g>
</g>
<g>
</g>
<g>
</g>
<g>
</g>
<g>
</g>
<g>
</g>
</svg>
