<?xml version="1.0" standalone="no"?>
<!DOCTYPE svg PUBLIC "-//W3C//DTD SVG 20010904//EN"
 "http://www.w3.org/TR/2001/REC-SVG-20010904/DTD/svg10.dtd">
<svg version="1.0" xmlns="http://www.w3.org/2000/svg"
 width="700.000000pt" height="700.000000pt" viewBox="0 0 700.000000 700.000000"
 preserveAspectRatio="xMidYMid meet">
<metadata>
Created by potrace 1.11, written by Peter Selinger 2001-2013
</metadata>
<g transform="translate(0.000000,700.000000) scale(0.100000,-0.100000)"
fill="#000000" stroke="none">
<path d="M3265 6994 c-250 -25 -416 -50 -554 -83 -525 -127 -960 -336 -1376
-662 -410 -321 -770 -770 -991 -1234 -173 -363 -273 -714 -326 -1145 -17 -138
-17 -602 0 -740 56 -449 157 -796 342 -1175 375 -767 1045 -1388 1840 -1705
288 -114 602 -192 935 -232 167 -20 597 -17 770 6 676 86 1261 330 1780 742
141 113 436 408 549 549 410 517 656 1106 743 1780 25 196 25 614 0 810 -106
819 -448 1519 -1018 2082 -560 553 -1248 886 -2040 988 -118 16 -562 28 -654
19z m770 -1179 c445 -56 823 -185 1124 -383 99 -65 264 -200 259 -212 -5 -13
-779 -810 -787 -810 -4 0 -34 23 -66 51 -202 172 -457 293 -698 330 -97 15
-289 7 -377 -16 -100 -27 -209 -80 -250 -124 -74 -77 -94 -229 -44 -329 59
-119 177 -167 747 -307 588 -144 868 -280 1117 -541 216 -227 311 -478 311
-823 -1 -251 -39 -439 -125 -611 -148 -293 -396 -526 -716 -670 -491 -222
-1136 -269 -1763 -129 -491 109 -834 275 -1160 562 l-38 33 403 426 c222 235
406 427 411 427 4 1 46 -35 93 -79 163 -151 381 -284 564 -344 398 -129 818
-57 910 157 31 70 38 176 16 249 -47 162 -204 239 -786 388 -536 137 -778 247
-995 452 -137 129 -264 331 -310 492 -82 290 -51 696 75 947 242 486 751 794
1445 874 146 17 465 12 640 -10z"/>
</g>
</svg>
