<?xml version="1.0" encoding="utf-8"?>
<!-- Generator: Adobe Illustrator 22.1.0, SVG Export Plug-In . SVG Version: 6.00 Build 0)  -->
<svg version="1.1" id="Layer_1" xmlns="http://www.w3.org/2000/svg" xmlns:xlink="http://www.w3.org/1999/xlink" x="0px" y="0px"
	 viewBox="0 0 1900 516" style="enable-background:new 0 0 1900 516;" xml:space="preserve">
<style type="text/css">
	.st0{fill:url(#SVGID_1_);}
</style>
<linearGradient id="SVGID_1_" gradientUnits="userSpaceOnUse" x1="418.9144" y1="-172.3681" x2="1463.2565" y2="871.9741">
	<stop  offset="0" style="stop-color:#DA3D6C"/>
	<stop  offset="1" style="stop-color:#572AD9"/>
</linearGradient>
<path class="st0" d="M234,267.8c-9-8.6-19.6-15.8-31.8-21.6c-12.2-5.9-25-8.8-38.5-8.8c-10.4,0-20,2-28.7,6.1s-13.2,11.1-13.2,21
	c0,9.5,4.8,16.2,14.5,20.3c9.7,4,25.4,8.6,47,13.5c12.6,2.7,25.4,6.5,38.2,11.5c12.9,5,24.5,11.5,34.8,19.6
	c10.4,8.1,18.7,18,25,29.8c6.3,11.7,9.5,25.7,9.5,41.9c0,21.2-4.3,39.1-12.9,53.8c-8.6,14.7-19.7,26.5-33.5,35.5
	c-13.8,9-29.2,15.6-46.3,19.6c-17.1,4.1-34.3,6.1-51.4,6.1c-27.5,0-54.4-4.4-80.8-13.2C39.6,494,17.6,481.1,0,463.9l62.2-65.6
	c9.9,10.8,22.1,19.8,36.5,27c14.4,7.2,29.8,10.8,46,10.8c9,0,17.9-2.1,26.7-6.4c8.8-4.3,13.2-11.8,13.2-22.7c0-10.4-5.4-18-16.2-23
	c-10.8-5-27.7-10.1-50.7-15.5c-11.7-2.7-23.4-6.3-35.2-10.8c-11.7-4.5-22.2-10.6-31.4-18.3c-9.2-7.7-16.8-17.1-22.7-28.4
	c-5.9-11.3-8.8-24.8-8.8-40.6c0-20.3,4.3-37.5,12.9-51.7c8.6-14.2,19.6-25.8,33.1-34.8c13.5-9,28.5-15.7,45-20
	c16.5-4.3,32.8-6.4,49-6.4c25.2,0,49.9,4,74.1,11.8c24.1,7.9,44.5,19.7,61.2,35.5L234,267.8z M351.5,214.4
	c19.8-18.9,42.9-33.1,69.3-42.6c26.4-9.5,53.3-14.2,80.8-14.2c28.4,0,52.4,3.5,72,10.5c19.6,7,35.5,17.8,47.7,32.5
	c12.2,14.7,21.1,33.1,26.7,55.4c5.6,22.3,8.5,48.8,8.5,79.4v169.8H555.1v-35.9h-2c-8.6,14-21.5,24.8-38.9,32.5
	c-17.4,7.7-36.2,11.5-56.5,11.5c-13.5,0-27.5-1.8-41.9-5.4c-14.4-3.6-27.6-9.5-39.6-17.6c-12-8.1-21.8-18.9-29.4-32.4
	c-7.7-13.5-11.5-30.2-11.5-50c0-24.4,6.7-44,20-58.8c13.3-14.9,30.4-26.4,51.4-34.5c21-8.1,44.3-13.5,70-16.2
	c25.7-2.7,50.7-4,75.1-4v-5.4c0-16.7-5.9-29-17.6-36.9c-11.7-7.9-26.2-11.8-43.3-11.8c-15.8,0-31,3.4-45.7,10.1
	c-14.7,6.8-27.2,14.9-37.5,24.4L351.5,214.4z M555.1,358.4h-14.2c-12.2,0-24.5,0.6-36.9,1.7c-12.4,1.1-23.4,3.3-33.1,6.4
	c-9.7,3.2-17.7,7.8-24,13.9c-6.3,6.1-9.5,14.1-9.5,24c0,6.3,1.5,11.7,4.4,16.2s6.7,8.1,11.2,10.8c4.5,2.7,9.7,4.6,15.6,5.8
	c5.8,1.1,11.5,1.7,16.9,1.7c22.5,0,39.8-6.2,51.7-18.6c11.9-12.4,17.9-29.2,17.9-50.4V358.4z M858.4,250.9v129
	c0,15.8,3,27.7,9.1,35.6c6.1,7.9,17,11.9,32.8,11.9c5.4,0,11.2-0.4,17.3-1.4c6.1-0.9,11.2-2.2,15.2-4.1l1.4,81.2
	c-7.7,2.7-17.4,5.1-29.1,7.1c-11.7,2-23.4,3-35.2,3c-22.5,0-41.5-2.8-56.8-8.5c-15.3-5.7-27.6-13.8-36.9-24.4
	c-9.2-10.6-15.9-23.3-20-38c-4.1-14.7-6.1-31.1-6.1-49.2V250.9h-54.1v-82.5h53.4V79.8h108.9v88.6h79.1v82.5H858.4z M1115,60.9
	c0,8.6-1.7,16.6-5.1,24c-3.4,7.4-7.9,13.9-13.5,19.3c-5.6,5.4-12.4,9.7-20.3,12.8c-7.9,3.2-16.1,4.7-24.7,4.7
	c-18,0-33.1-6-45.3-17.9c-12.2-11.9-18.3-26.3-18.3-43c0-8.1,1.6-15.9,4.7-23.3c3.2-7.5,7.7-13.9,13.5-19.3
	c5.8-5.4,12.6-9.8,20.3-13.2c7.7-3.4,16-5.1,25-5.1c8.6,0,16.8,1.6,24.7,4.7s14.7,7.4,20.3,12.9c5.6,5.4,10.1,11.8,13.5,19.3
	C1113.3,44.3,1115,52.3,1115,60.9z M996,505.2V168.4h110.9v336.8H996z M1403.9,505.2h-119.7l-132.5-336.8h122.4l71,218.4h2l71-218.4
	h118.4L1403.9,505.2z M1900,340.8c0,4.5,0,9,0,13.5c0,4.5-0.2,8.8-0.7,12.9h-244.1c0.9,9.5,3.7,18,8.5,25.7
	c4.7,7.7,10.8,14.3,18.3,20c7.4,5.7,15.8,10,25,13.2c9.2,3.2,18.8,4.7,28.7,4.7c17.6,0,32.4-3.3,44.6-9.8
	c12.2-6.5,22.1-15,29.8-25.4l77.1,48.7c-15.8,23-36.6,40.7-62.6,53.1c-25.9,12.4-56,18.6-90.3,18.6c-25.3,0-49.2-4-71.7-11.8
	c-22.6-7.9-42.3-19.4-59.2-34.5c-16.9-15.1-30.2-33.7-39.9-55.8c-9.7-22.1-14.5-47.3-14.5-75.7c0-27.5,4.7-52.4,14.2-74.7
	c9.5-22.3,22.3-41.3,38.5-56.8c16.2-15.5,35.4-27.6,57.5-36.2s46-12.9,71.7-12.9c24.8,0,47.6,4.2,68.3,12.5
	c20.7,8.3,38.5,20.4,53.4,36.2c14.9,15.8,26.5,34.9,34.8,57.5C1895.8,286.3,1900,312,1900,340.8z M1797.9,298.2
	c0-17.6-5.5-32.7-16.6-45.3c-11.1-12.6-27.6-18.9-49.7-18.9c-10.8,0-20.7,1.7-29.8,5.1c-9,3.4-16.9,8-23.7,13.9
	c-6.8,5.9-12.2,12.8-16.2,20.6c-4,7.9-6.3,16.1-6.8,24.7H1797.9z"/>
</svg>
