<?xml version="1.0" encoding="utf-8"?>
<!-- Generator: Adobe Illustrator 22.1.0, SVG Export Plug-In . SVG Version: 6.00 Build 0)  -->
<svg version="1.1" id="Layer_1" xmlns="http://www.w3.org/2000/svg" xmlns:xlink="http://www.w3.org/1999/xlink" x="0px" y="0px"
	 viewBox="0 0 226.77 65.2" style="enable-background:new 0 0 226.77 65.2;" xml:space="preserve">
<style type="text/css">
	.st0{fill:#231F20;}
</style>
<g>
	<path class="st0" d="M27.93,33.77c-1.08-1.02-2.34-1.88-3.79-2.58c-1.45-0.7-2.99-1.05-4.6-1.05c-1.24,0-2.38,0.24-3.43,0.73
		c-1.05,0.48-1.57,1.32-1.57,2.5c0,1.13,0.58,1.94,1.74,2.42c1.16,0.48,3.03,1.02,5.61,1.61c1.51,0.32,3.03,0.78,4.56,1.37
		c1.53,0.59,2.92,1.37,4.16,2.34c1.24,0.97,2.23,2.15,2.99,3.55c0.75,1.4,1.13,3.07,1.13,5.01c0,2.53-0.51,4.67-1.53,6.42
		c-1.02,1.75-2.35,3.16-4,4.24c-1.64,1.08-3.48,1.86-5.53,2.34c-2.05,0.49-4.09,0.73-6.13,0.73c-3.28,0-6.5-0.53-9.65-1.57
		C4.72,60.77,2.1,59.22,0,57.18l7.43-7.83c1.18,1.29,2.64,2.37,4.36,3.23c1.72,0.86,3.55,1.29,5.49,1.29c1.08,0,2.14-0.26,3.19-0.77
		c1.05-0.51,1.57-1.41,1.57-2.7c0-1.24-0.65-2.15-1.94-2.74c-1.29-0.59-3.31-1.21-6.05-1.86c-1.4-0.32-2.8-0.75-4.2-1.29
		c-1.4-0.54-2.65-1.26-3.75-2.18c-1.1-0.92-2.01-2.05-2.7-3.39c-0.7-1.34-1.05-2.96-1.05-4.84c0-2.42,0.51-4.48,1.53-6.17
		c1.02-1.69,2.34-3.08,3.95-4.16c1.61-1.08,3.4-1.87,5.37-2.38c1.96-0.51,3.92-0.77,5.85-0.77c3.01,0,5.96,0.47,8.84,1.41
		c2.88,0.94,5.31,2.35,7.3,4.24L27.93,33.77z"/>
	<path class="st0" d="M41.95,27.39c2.37-2.26,5.13-3.95,8.27-5.08c3.15-1.13,6.36-1.69,9.65-1.69c3.39,0,6.26,0.42,8.6,1.25
		c2.34,0.84,4.24,2.13,5.69,3.88c1.45,1.75,2.51,3.95,3.19,6.62c0.67,2.66,1.01,5.83,1.01,9.48V62.1H66.25v-4.28h-0.24
		c-1.02,1.67-2.57,2.96-4.64,3.88c-2.07,0.92-4.32,1.37-6.74,1.37c-1.61,0-3.28-0.21-5-0.65c-1.72-0.43-3.3-1.13-4.72-2.1
		c-1.43-0.97-2.6-2.26-3.51-3.87c-0.92-1.62-1.37-3.6-1.37-5.97c0-2.91,0.79-5.25,2.38-7.02c1.59-1.78,3.63-3.15,6.13-4.12
		c2.5-0.97,5.29-1.61,8.35-1.94c3.07-0.32,6.05-0.48,8.96-0.48v-0.65c0-1.99-0.7-3.46-2.1-4.4c-1.4-0.94-3.12-1.41-5.17-1.41
		c-1.88,0-3.7,0.4-5.45,1.21c-1.75,0.81-3.24,1.78-4.48,2.91L41.95,27.39z M66.25,44.59h-1.69c-1.45,0-2.92,0.07-4.4,0.2
		c-1.48,0.14-2.8,0.39-3.95,0.77c-1.16,0.38-2.11,0.93-2.87,1.65c-0.75,0.73-1.13,1.68-1.13,2.87c0,0.75,0.17,1.4,0.52,1.94
		c0.35,0.54,0.79,0.97,1.33,1.29c0.54,0.32,1.16,0.55,1.86,0.69c0.7,0.13,1.37,0.2,2.02,0.2c2.69,0,4.75-0.74,6.17-2.22
		c1.43-1.48,2.14-3.48,2.14-6.01V44.59z"/>
	<path class="st0" d="M102.46,31.75v15.4c0,1.89,0.36,3.31,1.09,4.25c0.73,0.95,2.03,1.42,3.91,1.42c0.65,0,1.33-0.05,2.06-0.16
		c0.73-0.11,1.33-0.27,1.82-0.49l0.16,9.69c-0.92,0.32-2.07,0.6-3.47,0.85s-2.8,0.36-4.2,0.36c-2.69,0-4.95-0.34-6.78-1.01
		c-1.83-0.67-3.3-1.65-4.4-2.91c-1.1-1.27-1.9-2.78-2.38-4.53c-0.48-1.75-0.73-3.71-0.73-5.87V31.75h-6.46V21.9h6.38V11.33h12.99
		V21.9h9.44v9.85H102.46z"/>
	<path class="st0" d="M133.08,9.07c0,1.02-0.2,1.98-0.61,2.87c-0.4,0.89-0.94,1.65-1.61,2.3c-0.67,0.65-1.48,1.16-2.42,1.53
		c-0.94,0.38-1.93,0.56-2.95,0.56c-2.15,0-3.95-0.71-5.41-2.14c-1.45-1.43-2.18-3.13-2.18-5.13c0-0.97,0.19-1.9,0.56-2.78
		c0.38-0.89,0.92-1.66,1.62-2.3c0.7-0.65,1.51-1.17,2.42-1.57c0.92-0.4,1.91-0.61,2.99-0.61c1.02,0,2,0.19,2.95,0.56
		c0.94,0.38,1.75,0.89,2.42,1.53c0.67,0.65,1.21,1.41,1.61,2.3C132.88,7.09,133.08,8.05,133.08,9.07z M118.88,62.1V21.9h13.24v40.2
		H118.88z"/>
	<path class="st0" d="M167.56,62.1h-14.29l-15.82-40.2h14.61l8.48,26.07h0.24l8.48-26.07h14.13L167.56,62.1z"/>
	<path class="st0" d="M226.77,42.49c0,0.54,0,1.08,0,1.61c0,0.54-0.03,1.05-0.08,1.53h-29.14c0.11,1.13,0.44,2.15,1.01,3.07
		c0.57,0.92,1.29,1.71,2.18,2.38c0.89,0.67,1.88,1.2,2.99,1.57c1.1,0.38,2.24,0.57,3.43,0.57c2.1,0,3.87-0.39,5.33-1.17
		c1.45-0.78,2.64-1.79,3.55-3.03l9.2,5.81c-1.89,2.75-4.37,4.86-7.47,6.34c-3.09,1.48-6.69,2.22-10.77,2.22
		c-3.02,0-5.87-0.47-8.56-1.41c-2.69-0.94-5.04-2.31-7.06-4.12c-2.02-1.8-3.6-4.02-4.76-6.66c-1.16-2.63-1.73-5.65-1.73-9.04
		c0-3.28,0.57-6.26,1.7-8.92c1.13-2.66,2.66-4.92,4.6-6.78c1.94-1.86,4.22-3.3,6.86-4.32c2.64-1.02,5.49-1.53,8.56-1.53
		c2.96,0,5.68,0.5,8.15,1.49c2.47,1,4.6,2.44,6.38,4.32c1.78,1.88,3.16,4.17,4.16,6.86C226.27,35.98,226.77,39.04,226.77,42.49z
		 M214.58,37.4c0-2.1-0.66-3.9-1.98-5.41c-1.32-1.51-3.3-2.26-5.93-2.26c-1.29,0-2.47,0.2-3.55,0.61c-1.08,0.4-2.02,0.96-2.82,1.65
		c-0.81,0.7-1.45,1.52-1.94,2.46c-0.48,0.94-0.75,1.93-0.81,2.95H214.58z"/>
</g>
</svg>
