<?xml version="1.0" encoding="utf-8"?>
<!-- Generator: Adobe Illustrator 22.1.0, SVG Export Plug-In . SVG Version: 6.00 Build 0)  -->
<svg version="1.1" id="Layer_1" xmlns="http://www.w3.org/2000/svg" xmlns:xlink="http://www.w3.org/1999/xlink" x="0px" y="0px"
	 viewBox="0 0 226.77 68.03" style="enable-background:new 0 0 226.77 68.03;" xml:space="preserve">
<style type="text/css">
	.st0{fill:#FFFFFF;}
</style>
<g>
	<g>
		<path class="st0" d="M20.25,67.84c-0.23,0-0.47,0-0.71-0.01c-3.45-0.03-6.71-0.77-9.69-2.19C6.83,64.2,4.43,62.2,2.72,59.7
			c-1.73-2.52-2.64-5.45-2.7-8.71L0,49.58l15.61,0.1l0.02,1.35c0.02,1.63,0.41,2.83,1.14,3.55c0.73,0.72,1.89,1.06,3.5,1.05
			c1.45,0,2.67-0.31,3.64-0.94c0.89-0.57,1.43-1.34,1.66-2.37c0.19-1.01-0.93-1.87-3.31-2.55l-2.94-0.74
			c-5.1-1.35-8.92-3.3-11.35-5.79c-2.53-2.6-3.74-5.72-3.58-9.29c0.15-4.77,2.3-8.71,6.38-11.69c3.96-2.89,8.92-4.29,14.49-4.27
			c5.64,0.06,10.29,1.53,13.84,4.37c3.64,2.92,5.51,6.89,5.57,11.81l0.02,1.4L28.1,35.51l0.05-1.42c0.05-1.48-0.23-2.53-0.82-3.15
			c-1.01-1.05-3.67-1.18-5.66,0.19c-0.89,0.61-1.4,1.39-1.56,2.38c-0.1,0.46-0.05,0.77,0.15,1.06c0.32,0.48,1.37,1.39,4.75,2.02
			c4.13,0.98,7.2,2.08,9.46,3.37c2.31,1.32,4.11,3,5.35,4.97c1.26,2.02,1.85,4.46,1.76,7.24c-0.09,3.03-1.1,5.77-2.98,8.16
			c-1.85,2.34-4.54,4.21-7.98,5.59C27.41,67.2,23.93,67.84,20.25,67.84z M2.87,52.36C3.12,54.5,3.83,56.44,5,58.14
			c1.43,2.1,3.47,3.78,6.05,5.01c2.61,1.25,5.49,1.89,8.55,1.92c3.6,0.1,6.95-0.5,9.99-1.71c2.99-1.19,5.29-2.79,6.84-4.74
			c1.53-1.93,2.32-4.07,2.39-6.53c0.07-2.23-0.38-4.14-1.34-5.69c-0.99-1.59-2.47-2.95-4.38-4.04c-2-1.15-4.91-2.18-8.66-3.07
			c-3.31-0.62-5.45-1.67-6.47-3.18c-0.61-0.91-0.8-1.98-0.57-3.1c0.27-1.69,1.19-3.1,2.71-4.15c1.43-0.98,3.01-1.48,4.68-1.48
			c1.94,0,3.47,0.55,4.52,1.64c0.88,0.91,1.4,2.16,1.56,3.73l10.98,0.03c-0.34-3.44-1.81-6.16-4.47-8.29
			c-3.05-2.45-7.14-3.72-12.14-3.77c-5.05-0.1-9.36,1.21-12.84,3.74c-3.4,2.49-5.12,5.62-5.25,9.57c-0.12,2.83,0.79,5.21,2.8,7.26
			c2.08,2.13,5.47,3.83,10.07,5.04l2.97,0.75c5.04,1.45,5.66,3.93,5.3,5.76l-0.01,0.03c-0.39,1.76-1.35,3.14-2.87,4.12
			c-1.47,0.94-3.26,1.38-5.29,1.37c-2.26,0-4.04-0.62-5.28-1.85c-1.02-1-1.64-2.39-1.87-4.12L2.87,52.36z"/>
	</g>
	<g>
		<path class="st0" d="M58.53,67.84c-0.15,0-0.29,0-0.44-0.01c-4.28-0.06-7.91-1.52-10.76-4.35c-2.88-2.85-4.24-6.34-4.06-10.4
			c0.15-5.35,2.44-9.54,6.78-12.44c4.19-2.79,9.92-4.2,17.05-4.2l3.49,0.06l0.28-1.43l0.15-2.06c-0.08-1.67-0.78-2.4-2.49-2.46
			c-1.58,0.01-3.46,0.39-4.19,3.9l-0.23,1.1L47.7,35.6l0.07-1.45c0.15-3.34,1.26-6.29,3.29-8.76c1.99-2.43,4.72-4.32,8.11-5.62
			c3.33-1.28,6.93-1.86,10.66-1.79c3.64,0.09,6.88,0.87,9.65,2.32c2.83,1.48,4.98,3.58,6.39,6.24c1.41,2.65,1.96,5.73,1.62,9.15
			l-3.41,21.45l-0.2,2.49c-0.1,1.81,0.13,3.37,0.68,4.62l0.13,0.3L84.58,67H68.87l-0.33-0.91c-0.18-0.5-0.32-1.04-0.43-1.62
			C65.31,66.71,62.1,67.84,58.53,67.84z M67.09,39.21c-6.55,0-11.77,1.26-15.5,3.74c-3.61,2.4-5.43,5.76-5.56,10.25
			c-0.15,3.31,0.91,6.03,3.24,8.34c2.36,2.34,5.26,3.5,8.87,3.55c3.91,0.1,7.23-1.37,10.08-4.5l2.4-2.64v3.56
			c0,1.04,0.08,1.96,0.25,2.74h10.75c-0.42-1.4-0.59-3.01-0.49-4.78l0.21-2.64l3.41-21.47c0.27-2.79-0.17-5.34-1.33-7.51
			c-1.15-2.16-2.91-3.87-5.24-5.09c-2.39-1.25-5.23-1.93-8.44-2c-3.39-0.08-6.62,0.46-9.61,1.61c-2.94,1.13-5.28,2.74-6.96,4.79
			c-1.37,1.67-2.2,3.55-2.53,5.7l11.26-0.03c1.28-4.17,4.3-5.04,6.68-5c3.2,0.11,5.03,1.98,5.17,5.26l-0.17,2.39l-0.75,3.85
			L67.09,39.21z M62.3,57.85c-0.14,0-0.27,0-0.41-0.01h-0.01c-1.98-0.09-3.08-0.99-3.65-1.73c-0.8-1.04-1.11-2.33-0.93-3.84
			c0.33-2.53,1.45-4.55,3.33-6.02c1.83-1.42,4.02-2.18,6.52-2.24l5.27,0.06l-1.76,9.26l-0.22,0.27
			C68.14,56.42,65.4,57.85,62.3,57.85z M62.01,55.09c2.29,0.08,4.28-0.88,6.08-2.97l1.01-5.34l-1.92-0.02
			c-1.87,0.05-3.47,0.59-4.84,1.66c-1.31,1.03-2.06,2.4-2.3,4.19c-0.09,0.77,0.03,1.36,0.38,1.81
			C60.53,54.58,60.89,55.04,62.01,55.09z"/>
	</g>
	<g>
		<path class="st0" d="M105.6,67.76c-0.18,0-0.36,0-0.55-0.01c-4.67-0.06-8.24-1.49-10.63-4.26c-2.37-2.74-3.36-6.47-2.93-11.06
			l3.44-21.03h-5.64l2.15-12.58h5.63l1.97-11.29h16.61l-1.97,11.29h7.26l-2.2,12.58h-7.25l-3.33,19.71c-0.2,1.44,0,2.1,0.14,2.37
			c0.07,0.13,0.5,0.39,1.66,0.43c0.37,0.02,1.26-0.01,3.43-0.21l1.66-0.15l-1.26,12.8l-0.86,0.28
			C110.65,67.38,108.18,67.76,105.6,67.76z M92.58,28.64h5.61l-3.95,24.14c-0.34,3.72,0.42,6.75,2.29,8.91
			c1.87,2.17,4.68,3.25,8.59,3.3c2.14,0.06,4.21-0.2,6.13-0.73l0.76-7.67c-1,0.07-1.69,0.09-2.14,0.08
			c-2.02-0.08-3.37-0.72-3.99-1.92c-0.52-1-0.65-2.32-0.41-4.06l3.73-22.05h7.27l1.24-7.06h-7.26l1.97-11.29h-11.01l-1.97,11.29
			h-5.62L92.58,28.64z"/>
	</g>
	<g>
		<path class="st0" d="M133.04,67H116.4l8.37-48.17h16.65L133.04,67z M119.67,64.24h11.05l7.41-42.66h-11.05L119.67,64.24z
			 M134.78,16.8c-2.42,0-4.51-0.72-6.23-2.14c-1.78-1.48-2.72-3.46-2.79-5.87c-0.07-2.45,0.81-4.53,2.61-6.17
			c1.75-1.6,3.89-2.42,6.37-2.42c2.48,0,4.6,0.73,6.29,2.18c1.74,1.49,2.66,3.45,2.73,5.84c0.07,2.48-0.8,4.57-2.59,6.2
			C139.43,15.99,137.28,16.8,134.78,16.8z M134.74,2.94c-1.78,0-3.26,0.55-4.51,1.69c-1.2,1.1-1.76,2.43-1.71,4.07v0
			c0.04,1.61,0.63,2.86,1.79,3.83c1.22,1.01,2.69,1.51,4.47,1.51c1.81,0,3.3-0.55,4.53-1.67c1.18-1.08,1.74-2.42,1.69-4.09
			c-0.04-1.59-0.62-2.84-1.76-3.82C138.04,3.44,136.57,2.94,134.74,2.94z"/>
	</g>
	<g>
		<path class="st0" d="M165.81,67H149.7L142,18.82h17.07l1.97,23.86l9.55-23.86h18.01L165.81,67z M152.05,64.24h12.01l20.19-42.66
			h-11.79l-13.2,32.98l-2.73-32.98h-11.3L152.05,64.24z"/>
	</g>
	<g>
		<path class="st0" d="M203.65,67.84h-0.01c-4.29-0.03-8.17-1.06-11.54-3.07c-3.4-2.02-6-4.87-7.73-8.48
			c-1.73-3.58-2.42-7.57-2.06-11.86l0.13-1.21c0.78-7.76,3.54-14.01,8.19-18.57c4.69-4.6,10.51-6.84,17.31-6.67
			c4.14,0.06,7.75,1.14,10.74,3.21c2.99,2.07,5.21,4.96,6.59,8.59c1.36,3.57,1.81,7.61,1.34,12.01l-0.97,6.99h-26.73
			c0.22,1.41,0.73,2.56,1.56,3.51c1.03,1.19,2.55,1.81,4.63,1.88c3.59,0.09,6.82-1.28,9.76-4.21l1.12-1.12l7.36,9.73l-0.58,0.82
			c-1.84,2.62-4.44,4.7-7.72,6.18c-3.22,1.45-6.79,2.22-10.6,2.28H203.65z M203.65,65.08h0.75c3.41-0.05,6.61-0.74,9.49-2.04
			c2.47-1.11,4.49-2.61,5.99-4.46l-4.25-5.61c-3.17,2.73-6.78,4.02-10.64,3.95c-2.86-0.1-5.09-1.05-6.63-2.83
			c-1.49-1.72-2.29-3.97-2.35-6.66l-0.03-1.41h27.24l0.64-4.57c0.41-3.92,0.02-7.54-1.18-10.69c-1.18-3.1-3.06-5.55-5.59-7.3
			c-2.53-1.75-5.63-2.67-9.22-2.72c-6.17-0.16-11.13,1.77-15.32,5.88c-4.18,4.1-6.66,9.78-7.38,16.89l-0.13,1.19
			c-0.31,3.75,0.29,7.26,1.8,10.4c1.5,3.11,3.74,5.56,6.66,7.3C196.45,64.15,199.86,65.05,203.65,65.08z M213.08,39.92H196.2
			l0.65-1.84c1.15-3.26,2.51-5.55,4.14-7c1.71-1.52,3.68-2.26,6.05-2.18c4.71,0.13,6.19,3.03,6.61,5.45
			c0.13,1.05,0.1,2.12-0.08,3.22L213.08,39.92z M200.17,37.17l10.69-0.11c0.13-0.78,0.16-1.57,0.06-2.3
			c-0.35-2.06-1.58-3.03-3.96-3.1h0c-1.65-0.08-2.96,0.44-4.14,1.49C201.86,34,200.97,35.35,200.17,37.17z"/>
	</g>
</g>
</svg>
