<svg version="1.1" id="Warstwa_1" xmlns="http://www.w3.org/2000/svg" xmlns:xlink="http://www.w3.org/1999/xlink" x="0px" y="0px" width="182px" height="58px" viewBox="0 0 182 58" enable-background="new 0 0 182 58" xml:space="preserve"> <path fill="#454545" d="M48.4,0.9h-1.4c-0.6,0-1.8,0.3-2.7,0.6l-0.4,0.3c-0.4,0.3-1.2,1-1.6,1.3l-0.4,0.3c-1,0.6-2.1,1.3-2.6,1.7
 l-0.6,0.3c-0.6,0.3-1.2,0.7-1.6,1c-0.4,0.3-1.6,1.2-2,1.4c-0.4,0.3-1.7,1-2.2,1.4c-0.4,0.4-1.3,1-1.7,1.3c-0.4,0.3-2,1.2-2.7,1.7
 c-0.7,0.6-2.3,1.7-2.7,2c-0.4,0.3-11.7,8.4-12.6,8.8c-0.9,0.4-1.6,0.7-2,1.2c-0.4,0.4-1.7,0.6-2.2,0.9c-0.4,0.3-1.2,0.7-1.6,1.2
 c-0.4,0.4-0.9,0.9-1.6,1.3c-0.7,0.4-1.4,0.9-2,1.2L3,29.1c-0.7,0.6-1.5,1.5-1.7,2C1.2,31.5,1,32.1,1,32.4C1,32.7,1.5,33,2.2,33h2.1
 h2.5c0.8,0,3.4-0.4,3.8,0c0.4,0.4,1.7,0.4,2.2,0l0.4-0.4c0.8-0.6,3.5-2.8,6-4.8c2.5-2,4.9-3.8,5.3-4c0.4-0.2,1.1-0.4,1.4-0.6
 c0.3-0.2,2.4-1.6,4.7-3.2c2.3-1.6,5.7-3.8,7.7-4.8s4.1-2.1,4.7-2.2s1.5-0.4,2-0.6c0.5-0.2,1.1-0.2,1.4-0.1c0.3,0.1,0.8,0.2,1.1,0.4
 c0.3,0.1,0.6,0.6,0.6,1v1.2v0.9c0,0.3-0.1,0.7-0.3,0.9c-0.2,0.2-0.6,0.8-1,1.2c-0.4,0.4-1,1.3-1.4,1.9c-0.4,0.6,0.1,1.1,1,1.1h3h2.1
 c0.5,0,1.2,0.3,1.7,0.7c0.4,0.4,1.1,1,1.4,1.3c0.4,0.3,1,0.9,1.5,1.3c0.5,0.4,1.1,0.9,1.3,1l0.4,0.4l0.4,0.4
 c0.7,0.6,2.2,2.2,3.3,3.6c1.1,1.4,3.3,4,4.8,5.8l0.4,0.4c0.4,0.4,3.8,3.8,4.2,3.9l0.4,0.1c1.1,1,2.4,2.1,2.8,2.6
 c0.4,0.5,2.1,1.8,3.7,2.9l0.3,0.4l0.3,0.4c0.7,0.3,1.6,0.6,2,0.6h1.2c0.2,0,0.6-0.3,0.8-0.6c0.2-0.3,0.8-1.1,1.4-1.8
 c0.6-0.7,1.1-2,1.1-2.9c0-0.9-0.7-2.2-1.7-2.9c-0.9-0.7-2.2-1.7-2.9-2.3c-0.7-0.6-1.7-1.5-2.4-2c-0.6-0.5-1.6-1.4-2.2-1.9
 c-0.6-0.5-1.7-1.6-2.5-2.3c-0.8-0.8-1.7-1.8-2-2.2s-0.9-1.2-1.4-1.6c-0.4-0.4-1.2-1.1-1.6-1.6c-0.4-0.5-0.9-1.2-1-1.5
 c-0.1-0.4,0.1-0.8,0.5-1.1c0.4-0.2,1.3-0.6,2-0.9c0.7-0.2,2.1-0.6,3.1-0.8c1-0.2,2.4-0.4,3.2-0.4c0.8,0,1.7,0.2,2,0.4
 c0.4,0.2,1,0.7,1.4,1c0.4,0.4,1,1,1.3,1.5c0.3,0.5,1.2,1.2,1.9,1.6H83h0.4c1.4,0.2,3.6,0.3,4.8,0.3l0.4-0.1l0.4-0.1
 c2.4-1.3,4.4-2.4,4.5-2.6c0.1-0.2,0.4-0.5,0.6-0.7c0.2-0.2,0.2-0.7,0-1c-0.2-0.3-0.5-0.7-0.6-0.7c-0.1-0.1-0.8-0.5-1.5-0.9
 c-0.7-0.4-1.5-1-1.8-1.3c-0.3-0.3-0.6-0.8-0.8-1.1c-0.2-0.3-0.5-0.8-0.8-1.2c-0.3-0.3-0.8-0.7-1.1-0.8c-0.3-0.1-1.2-0.4-1.9-0.7
 h-0.6c-0.6,0-1,0-1.6,0.1L83,13.9c-1,0.2-2.3,0.6-2.9,0.7c-0.6,0.2-1.5,0.4-2,0.4c-0.5,0.1-1.9,0.3-3.2,0.6h-0.7h-0.7
 c-1.5,0-4.2-0.1-5.9-0.3h-0.4c-0.4,0-3.9,0.1-4.6-0.1L61.8,15c-0.9-0.4-2.4-1.8-3.3-3.2l-0.6-0.7l-0.6-0.7c-1.1-1.7-2.7-3.9-3.5-4.9
 L53.6,5c-0.3-0.4-1.4-1.2-1.9-1.6c-0.4-0.4-1-1-1.4-1.3l-0.4-0.3C49.3,1.3,48.6,0.9,48.4,0.9"></path> <path fill="#454545" d="M110,15.5c-0.3-0.6-1.4-0.4-2.5,0.3l-0.3,0.2c-0.3,0.2-2.5,1-2.8,1.3c-0.3,0.3-1.3,1.2-2,1.6
 c-0.7,0.4-2.2,1.1-2.4,1.4l-0.2,0.3c-0.5,0.8-1.2,1.6-1.6,1.8l0.8,0.7c0.8,0.7,1.7,2.4,1.8,2.7c0.1,0.3,0.7,1.7,0.9,2.1
 c0.2,0.3,0.3,1,0.5,1.8c0.2,0.9,0.7,3.5,0.8,4.2s0.5,3.1,0.5,3.5c0,0.3,0.1,1.3,0,2.2c-0.1,0.9-0.1,3.7-0.1,4c0,0.3-0.1,2.6,0.1,3.3
 c0.2,0.7,1.1,5.6,1.1,5.9c0,0.3,0.4,1,0.4,1.4v0.3c0.1,0.7,0.4,1.4,0.5,1.6c0.2,0.2,0.3,0.6,0.2,1l0.3-2c0.3-2,0.7-3.1,0.9-3.8
 c0.2-0.7,0.9-3.7,0.9-4.4c0-0.8,0.8-3,0.8-3.8c0-0.8,0.9-8.6,0.9-9.2s0.5-12,0.5-13v-3.2V16V15.5z"></path> <path fill="#454545" d="M123.2,15.2c-0.3,0-0.9,0.2-1.4,1c-0.5,0.8-0.8,1.2-1.2,1.6l-0.4,0.4c-0.5,0.6-1.3,1.6-1.7,2.3v0.3
 c0,0.3-0.4,2.5,0,3c0.4,0.5,4.2,3.7,4.8,3.7c0.5,0,2.3,1.2,2.4,0.5c0.1-0.7,0.8-2.8,1-3.3c0.2-0.4,0.9-1.7,1-2.1
 c0.1-0.3,0.2-1.8,0.5-1.9c0.3-0.1,0.9-0.8,1-1.1c0.1-0.3,0-1.1,0-1.6c0-0.5-0.3-1.3-1.1-1.4l-0.8-0.1c-1.1-0.2-2.1-0.2-2.1-0.1
 l-1-0.7L123.2,15.2z"></path> <path fill="#454545" d="M142.7,14.7c-0.2,0-2,0.7-2.4,1.1c-0.4,0.4-1,0.7-1.4,1c-0.4,0.3-1,0.9-1.4,1c-0.3,0.2-0.8,0.6-1.4,0.9
 c-0.5,0.3-0.6,0.3-0.8,0.6c-0.1,0.3-0.4,1-0.4,1.6c-0.1,0.6,0.2,1.5,0.5,2.1c0.3,0.6,0.9,1.4,1.5,1.6c0.6,0.2,1.6,0.3,1.8,0.4
 c0.3,0.2,0.7,0.3,1.5,0.3c0.8,0,1.1,0.5,1.9,0c0.8-0.5,1.8-0.9,2.5-1.1c0.7-0.3,1.5-0.3,1.9-0.7c0.4-0.4,0.9-0.3,0.7-1.2
 c-0.2-1-0.6-2.2-0.8-2.7c-0.2-0.5-0.5-1.6-0.8-2.1c-0.2-0.5-0.3-0.9-0.5-1.4c-0.3-0.5-0.3-0.4-0.7-0.8c-0.4-0.3-0.4-0.6-0.7-0.5
 C143.6,14.8,142.7,14.7,142.7,14.7"></path> <path fill="#454545" d="M152,18.7c-0.3,0.1-1.2,2.1-1.1,2.2c0.1,0,1.1,0.8,1.1,0.9c0,0.1,0.9,1,1.1,1c0.2,0,2.1,0.3,2.7,0.3
 c0.7,0,1.6-0.1,2.2,0c0.7,0.1,1.8-0.1,2.7-0.8c0.9-0.6,3-2,3.5-2.6c0.5-0.6,3-2.8,3.5-3.3c0.6-0.5,3-2.7,3.5-3.1
 c0.4-0.4,2.7-2.2,3.2-2.6c0.5-0.4,2.6-2.2,3-2.6c0.4-0.4,1.8-1.5,2.2-2c0.4-0.5,1.2-1.4,1.3-1.6c0.1-0.2,0.1-1,0-1.3
 c-0.1-0.3-0.9-1.5-1.5-1.5s-2.9,0.7-3.1,0.8c-0.2,0.1-2,1.2-2.4,1.7c-0.4,0.5-3.3,2.4-3.8,2.7c-0.4,0.4-5.3,3.8-6.2,4.3
 c-0.9,0.4-5.1,2.5-5.6,2.8c-0.5,0.3-2,1-3.2,1.9C154,16.8,153,18.3,152,18.7"></path> </svg>