<?xml version="1.0" encoding="iso-8859-1"?>
<!-- Generator: Adobe Illustrator 19.0.0, SVG Export Plug-In . SVG Version: 6.00 Build 0)  -->
<svg version="1.1" id="Capa_1" xmlns="http://www.w3.org/2000/svg" xmlns:xlink="http://www.w3.org/1999/xlink" x="0px" y="0px"
	 viewBox="0 0 480 480" style="enable-background:new 0 0 480 480;" xml:space="preserve">
<g>
	<g>
		<path d="M143.312,86.344c-6.24,6.232-16.384,6.232-22.624,0l-11.312,11.312c6.24,6.24,14.432,9.36,22.624,9.36
			s16.384-3.12,22.624-9.36L143.312,86.344z"/>
	</g>
</g>
<g>
	<g>
		<path d="M476.456,105.352c-2.224-1.488-5.032-1.76-7.504-0.752l-132.896,54.72l-52.904-22.672c-2.464-1.048-5.312-0.8-7.552,0.672
			c-2.248,1.48-3.6,3.992-3.6,6.68v80v74.96l-35.696-40.168C225.68,246.848,210.424,240,194.448,240H152v-8
			c17.648,0,32-14.352,32-32c0-4.416-3.584-8-8-8c-8.824,0-16-7.176-16-16h16c4.416,0,8-3.584,8-8v-16h16
			c2.464,0,4.792-1.136,6.304-3.08c1.512-1.944,2.056-4.472,1.456-6.864l-21.776-87.12C207.672,50.336,224,31.048,224,8
			c0-4.416-3.584-8-8-8H64C41.944,0,24,17.944,24,40v65.472C14.712,108.784,8,117.584,8,128c0,13.232,10.768,24,24,24h8v48
			c0,17.648,14.352,32,32,32v8H56c-30.88,0-56,25.12-56,56v176c0,4.416,3.584,8,8,8h216c4.416,0,8-3.584,8-8V364.296l15.064,16.136
			c16.04,17.192,39.6,22.496,61.472,13.896C330.408,385.696,344,365.736,344,342.224v-106.28l124.952,51.448
			C469.936,287.8,470.968,288,472,288c1.56,0,3.112-0.456,4.456-1.352C478.664,285.16,480,282.664,480,280V112
			C480,109.336,478.664,106.84,476.456,105.352z M163.056,256l-14.16,28.32l-15.8-10.536l-7.592-7.592L145.888,256H163.056z
			 M141.68,298.744l-9.384,18.776l-3.816-26.688l0.536-0.536L141.68,298.744z M112,255.056l-24-12V232h48v11.056L112,255.056z
			 M116.688,280L112,284.688L107.312,280l4.688-4.688L116.688,280z M40,136h-8c-4.408,0-8-3.592-8-8s3.592-8,8-8h8V136z M48,104h-8
			V40c0-13.232,10.768-24,24-24h142.992C203.424,29.784,190.88,40,176,40H88c-4.416,0-8,3.584-8,8v24C80,89.648,65.648,104,48,104z
			 M56,200v-56v-24.664c0.176-0.032,0.328-0.104,0.504-0.128c2.456-0.44,4.848-1.072,7.16-1.88c0.4-0.136,0.784-0.288,1.176-0.432
			c2.304-0.872,4.536-1.888,6.664-3.08c0.288-0.16,0.552-0.344,0.832-0.504c2.192-1.296,4.304-2.728,6.256-4.344
			c0.032-0.032,0.064-0.064,0.104-0.088c1.952-1.624,3.744-3.432,5.416-5.344c0.176-0.2,0.368-0.392,0.544-0.6
			c1.576-1.864,2.984-3.872,4.264-5.96c0.208-0.344,0.424-0.688,0.632-1.04c1.208-2.088,2.256-4.264,3.136-6.536
			c0.152-0.392,0.296-0.792,0.44-1.192c0.84-2.328,1.528-4.72,2-7.192c0.064-0.312,0.088-0.64,0.144-0.96
			C95.712,77.432,96,74.752,96,72V56h73.752l20,80H176c-4.416,0-8,3.584-8,8v16h-16c-4.416,0-8,3.584-8,8v8
			c0,14.368,9.52,26.552,22.584,30.584C164.064,212.136,158.48,216,152,216h-8H80h-8C63.176,216,56,208.824,56,200z M78.112,256
			l20.384,10.192l-7.592,7.592l-15.8,10.536L60.944,256H78.112z M95.52,290.832l-3.816,26.688l-9.392-18.776l12.672-8.448
			L95.52,290.832z M104,464H16V296c0-17.872,11.864-32.864,28.064-37.976L104,377.888V464z M112,358.112l-7.728-15.456l5.584-39.072
			c0.704,0.2,1.416,0.416,2.144,0.416c0.728,0,1.44-0.216,2.144-0.416l5.584,39.072L112,358.112z M328,342.224
			c0,20.08-13.088,32.384-25.336,37.216c-12.248,4.832-30.216,4.752-43.912-9.92l-28.912-30.976c-2.24-2.408-5.72-3.184-8.784-1.984
			c-3.048,1.2-5.056,4.152-5.056,7.44v120h-96v-86.112L180.944,256h13.504c11.416,0,22.312,4.896,29.896,13.424l49.68,55.888
			c2.216,2.488,5.72,3.336,8.824,2.16S288,323.32,288,320v-56h40V342.224z M328,224v24h-40v-16h8c3.672,0,6.872-2.496,7.76-6.056
			L310.248,200H328V224z M328,184h-24c-3.672,0-6.872,2.496-7.76,6.056L289.752,216H288v-59.864l40,17.136V184z M464,268.056
			L344,218.64V192v-18.64l120-49.416V268.056z"/>
	</g>
</g>
<g>
	<g>
		<rect x="384" y="24" width="16" height="64"/>
	</g>
</g>
<g>
	<g>
		<rect x="412.708" y="55.988" transform="matrix(0.6402 -0.7682 0.7682 0.6402 110.5748 364.0656)" width="62.48" height="16"/>
	</g>
</g>
<g>
	<g>
		<rect x="331.991" y="32.753" transform="matrix(0.7682 -0.6402 0.6402 0.7682 37.8401 232.4974)" width="16" height="62.48"/>
	</g>
</g>
<g>
	<g>
		<rect x="152" y="352" width="48" height="16"/>
	</g>
</g>
<g>
</g>
<g>
</g>
<g>
</g>
<g>
</g>
<g>
</g>
<g>
</g>
<g>
</g>
<g>
</g>
<g>
</g>
<g>
</g>
<g>
</g>
<g>
</g>
<g>
</g>
<g>
</g>
<g>
</g>
</svg>
