<svg height="512pt" viewBox="0 -49 512 512" width="512pt" xmlns="http://www.w3.org/2000/svg"><path d="m347.410156 346.40625v-30.105469h164.589844v-316.300781h-512v316.300781h165.59375v30.105469h15.050781v22.414062h-45.160156v45.328126h241.03125v-45.328126h-45.160156v-22.414062zm-332.1875-67.742188h376.261719v-15.222656h-376.261719v-248.21875h481.554688v248.21875h-30.023438v15.222656h30.023438v22.414063h-481.554688zm346.070313 105.378907v14.882812h-210.585938v-14.882812h150.453125v-15.222657h-105.289062v-22.414062h90.238281v-15.222656h-105.292969v-14.882813h151.371094v14.882813h-31.027344v15.222656h14.96875v37.636719zm0 0"/><path d="m406.539062 263.441406h15.050782v15.222656h-15.050782zm0 0"/><path d="m436.644531 263.441406h15.054688v15.222656h-15.054688zm0 0"/><path d="m286.191406 188.171875h-45.328125v30.109375h-14.886719v-60.214844h-45.332031v60.214844h-14.882812v-150.539062h-45.332031v150.539062h-14.882813v-105.378906h-45.332031v105.378906h-14.96875v15.222656h254.03125v-15.222656h-13.085938zm-30.105468 15.222656h14.882812v14.886719h-14.882812zm-60.214844-30.105469h14.882812v44.992188h-14.882812zm-60.21875-90.324218h14.886718v135.316406h-14.886718zm-60.214844 45.164062h14.886719v90.152344h-14.886719zm0 0"/><path d="m316.214844 45.160156h15.054687v15.226563h-15.054687zm0 0"/><path d="m346.324219 45.160156h120.429687v15.226563h-120.429687zm0 0"/><path d="m316.214844 75.269531h15.054687v15.222657h-15.054687zm0 0"/><path d="m316.214844 105.375h15.054687v15.226562h-15.054687zm0 0"/><path d="m316.214844 135.484375h15.054687v15.222656h-15.054687zm0 0"/><path d="m346.324219 75.269531h120.429687v15.222657h-120.429687zm0 0"/><path d="m346.324219 105.375h67.742187v15.226562h-67.742187zm0 0"/><path d="m429.117188 105.375h37.636718v15.226562h-37.636718zm0 0"/><path d="m346.324219 135.484375h120.429687v15.222656h-120.429687zm0 0"/><path d="m346.324219 165.59375h30.105469v15.222656h-30.105469zm0 0"/><path d="m391.484375 165.59375h15.054687v15.222656h-15.054687zm0 0"/></svg>